<?xml version="1.0" encoding="UTF-8" standalone="no"?>
<svg
   viewBox="0 0 1200 1200"
   version="1.1"
   id="svg1"
   sodipodi:docname="logo.svg"
   inkscape:version="1.4.2 (ebf0e940, 2025-05-08)"
   inkscape:export-filename="logo.png"
   inkscape:export-xdpi="96"
   inkscape:export-ydpi="96"
   xmlns:inkscape="http://www.inkscape.org/namespaces/inkscape"
   xmlns:sodipodi="http://sodipodi.sourceforge.net/DTD/sodipodi-0.dtd"
   xmlns="http://www.w3.org/2000/svg"
   xmlns:svg="http://www.w3.org/2000/svg">
  <defs
     id="defs1" />
  <sodipodi:namedview
     id="namedview1"
     pagecolor="#505050"
     bordercolor="#ffffff"
     borderopacity="1"
     inkscape:showpageshadow="0"
     inkscape:pageopacity="0"
     inkscape:pagecheckerboard="1"
     inkscape:deskcolor="#505050"
     inkscape:zoom="0.4902607"
     inkscape:cx="599.68094"
     inkscape:cy="594.58162"
     inkscape:window-width="1280"
     inkscape:window-height="694"
     inkscape:window-x="0"
     inkscape:window-y="33"
     inkscape:window-maximized="0"
     inkscape:current-layer="svg1"
     inkscape:export-bgcolor="#ffffff00" />
  <ellipse
     style="fill-rule:nonzero;paint-order:fill;stroke:rgb(51, 51, 51);stroke-width:60px;fill:#241c1f"
     cx="600"
     cy="600"
     rx="566"
     ry="566"
     id="ellipse1" />
  <path
     d="M 143.1330688999625 291.9599826660156 Q 141.20706889996248 291.9599826660156 141.82066511495955 289.49898266601565 Q 142.4075832336524 287.1449826660156 145.2406385079959 283.50698266601563 L 173.30814928056913 253.76098266601562 Q 186.24594560750933 240.06498266601562 193.0345495044554 231.29098266601562 Q 199.82315340140147 222.51698266601562 200.73020867574496 218.87898266601562 Q 201.15705821661248 217.16698266601563 200.08648298704625 216.31098266601563 Q 199.01590775748002 215.4549826660156 197.3839420463927 215.13398266601564 Q 195.75197633530536 214.8129826660156 194.25397633530534 214.8129826660156 Q 185.15897633530534 214.8129826660156 166.1204543196664 225.94098266601563 Q 160.74578952684402 229.0439826660156 155.9333780598921 232.89598266601564 Q 151.12096659294016 236.74798266601562 146.71016464446714 241.13498266601562 Q 138.10256074752107 249.90898266601562 136.60858735448474 255.90098266601564 Q 135.46142921340325 260.50198266601564 139.50132634666528 261.4649826660156 Q 140.9996139614484 261.89298266601566 143.0326139614484 261.89298266601566 Q 146.8846139614484 261.89298266601566 151.21681969492437 259.9669826660156 Q 155.54902542840034 258.0409826660156 159.9340121249185 255.0449826660156 Q 163.30293024361134 252.69098266601563 163.73093024361134 252.69098266601563 Q 164.15893024361134 252.69098266601563 163.86518356948181 253.43998266601562 Q 162.66294354709316 255.68698266601564 159.69505971731297 257.71998266601565 Q 156.72717588753278 259.7529826660156 152.88966539481737 261.4114826660156 Q 149.05215490210196 263.0699826660156 145.3478910835161 263.9794826660156 Q 141.64362726493022 264.88898266601564 138.96862726493023 264.88898266601564 Q 134.68862726493023 264.88898266601564 132.02552823916673 262.6954826660156 Q 129.36242921340326 260.50198266601564 130.42955306557207 256.2219826660156 Q 132.0569169401295 249.69498266601562 142.02826751120512 240.17198266601562 Q 151.59858379336805 230.96998266601562 164.08601624575084 223.8009826660156 Q 169.220002942269 220.80498266601563 175.78529439802662 218.07648266601564 Q 182.35058585378425 215.34798266601564 188.78277444280388 213.5824826660156 Q 195.21496303182352 211.81698266601563 199.9229630318235 211.81698266601563 Q 208.37596303182352 211.81698266601563 206.98870202400406 217.38098266601563 Q 205.30798195683818 224.12198266601564 191.03455512598822 240.59998266601562 Q 181.0376769177409 251.94198266601563 165.3726748573247 267.56398266601565 Q 152.40762520451406 280.51098266601565 152.30062520451406 280.51098266601565 Q 152.62162520451406 280.51098266601565 165.32046912384874 269.48998266601564 Q 173.12686728731885 262.6419826660156 179.877611150682 257.2384826660156 Q 186.6283550140451 251.83498266601563 192.24312267360548 247.76898266601563 Q 194.99700650338565 245.73598266601562 198.96733224805592 242.68648266601562 Q 202.9376579927262 239.63698266601563 208.2314256522866 235.57098266601562 Q 212.83012473402164 232.14698266601562 217.10825523793136 229.36498266601564 Q 221.38638574184108 226.58298266601562 224.3823857418411 226.58298266601562 Q 227.4853857418411 226.58298266601562 228.07489239358202 228.08098266601564 Q 215.1895894149009 240.27898266601562 202.22770352470454 257.93398266601565 Q 192.98068816080655 270.5599826660156 191.35332428624912 277.0869826660156 Q 190.39291281929718 280.93898266601565 191.99906327842965 282.65098266601564 Q 193.6052137375621 284.3629826660156 196.92221373756212 284.3629826660156 Q 200.56021373756212 284.3629826660156 205.07959756734232 282.3299826660156 Q 209.5989813971225 280.29698266601565 214.35832428624911 277.0869826660156 Q 219.11766717537571 273.87698266601564 223.422044353415 270.34598266601563 Q 238.82170352470453 257.93398266601565 249.6992465257743 243.48898266601563 Q 258.19812473402163 232.14698266601562 259.8788448011875 225.40598266601563 Q 260.03891337901285 224.76398266601564 260.11880386053394 224.2289826660156 Q 260.19869434205503 223.69398266601564 260.19840672727196 223.26598266601562 Q 257.9514067272719 223.26598266601562 255.97032484596477 220.91198266601563 Q 254.6854620016154 219.6279826660156 255.03227725357027 218.23698266601562 Q 255.35241440922093 216.95298266601563 256.6358391796547 216.09698266601563 Q 257.91926395008846 215.2409826660156 259.3102639500885 215.2409826660156 Q 261.3432639500885 215.2409826660156 261.8527363129167 217.05998266601563 Q 262.0673115424829 217.91598266601562 263.0311743868323 219.19998266601561 Q 263.67374961639854 220.0559826660156 263.4600372311817 220.48398266601563 Q 263.86193436444364 221.44698266601563 265.3599343644437 221.44698266601563 Q 266.8579343644437 221.44698266601563 268.51557152009434 220.16298266601564 Q 270.17320867574495 218.87898266601562 271.77820867574496 218.87898266601562 Q 272.63420867574496 218.87898266601562 272.47414009791964 219.52098266601564 Q 272.1806810385732 220.69798266601563 269.88090007553103 221.76798266601563 Q 268.6241534014015 222.51698266601562 267.072797208793 222.73098266601562 Q 266.1901191124888 222.83798266601562 265.3207800643367 222.89148266601563 Q 264.4514410161846 222.94498266601562 263.64879720879304 222.73098266601562 Q 263.86567335662426 227.01098266601562 263.358789526844 229.0439826660156 Q 261.2245418225064 237.6039826660156 249.7044235918704 251.19298266601564 Q 243.93102542840035 258.0409826660156 237.16737393905976 264.1399826660156 Q 230.40372244971923 270.2389826660156 222.5428176345082 275.5889826660156 Q 206.8746518114777 286.5029826660156 196.8166518114777 286.5029826660156 Q 185.7956518114777 286.5029826660156 188.35674905668287 276.2309826660156 Q 189.55726339037278 271.4159826660156 193.12425392786545 265.26348266601565 Q 196.69124446535812 259.1109826660156 200.99389595469867 253.01198266601563 L 212.88635707446127 236.21298266601562 Q 207.27130180011778 239.85098266601562 203.75522272957704 242.15148266601562 Q 200.2391436590363 244.45198266601562 197.859472214473 246.05698266601564 Q 195.4798007699097 247.66198266601563 193.30079027719427 249.32048266601564 Q 191.12177978447886 250.9789826660156 188.073861665786 253.33298266601562 Q 184.7319092581805 256.0079826660156 178.99737778003427 260.9834826660156 Q 173.26284630188803 265.95898266601563 165.43005765689682 273.3419826660156 L 149.22976798169753 288.5359826660156 Q 147.83963082604689 289.8199826660156 146.1818498630047 290.8899826660156 Q 144.5240688999625 291.9599826660156 143.1330688999625 291.9599826660156 Z"
     transform="matrix(7.986133098602295, 0.0004610000178217888, -0.13594397902488708, 8.988579750061035, -961.1981811523438, -1658.144775390625)"
     style="fill:#170b28;white-space:pre"
     id="path1" />
  <path
     style="fill:#7137c8;stroke-width:2.88462"
     d="M 545.50131,1131.7989 C 419.73283,1118.6523 295.31072,1056.8675 210.61077,965.50085 l -22.85196,-24.65063 75.34021,-78.1174 C 407.20454,713.31522 496.64423,627.04956 562.5,573.95701 c 30.83195,-24.85655 130.23165,-97.09076 131.65099,-95.67139 0.72436,0.72435 -19.08874,32.94968 -44.02909,71.61185 -84.97792,131.73141 -122.68821,199.92247 -139.4184,252.10874 -24.21857,75.54456 -7.89505,111.39445 52.75616,115.86361 61.99122,4.56793 142.60926,-36.33652 257.67178,-130.73899 106.61657,-87.47302 215.67226,-219.65158 267.12136,-323.75853 20.0453,-40.56162 17.971,-40.93875 29.5784,5.3777 20.172,80.49083 21.1868,169.94871 2.8536,251.541 -24.4622,108.86957 -88.9253,214.28461 -175.44664,286.9042 -112.62439,94.5284 -256.97969,139.526 -399.73685,124.6037 z"
     id="path2" />
  <path
     style="fill:#7137c8;stroke-width:2.88462"
     d="M 544.93976,889.0961 C 527.04303,877.03552 524.02855,861.72909 532.72875,827.0934 551.7086,751.53427 686.34684,552.63407 816.8582,407.35082 l 14.99089,-16.68762 -6.38928,-6.3893 c -5.25035,-5.25032 -9.58881,-6.3748 -24.33802,-6.30805 -33.05155,0.14959 -56.1405,16.16671 -209.87325,145.59184 -48.05501,40.45673 -108.25682,91.70164 -133.7818,113.87758 -46.26686,40.19637 -58.35813,51.35772 -136.96127,126.42785 -22.83256,21.8063 -42.11274,39.04883 -42.84484,38.31675 -0.7321,-0.73212 21.87461,-27.05092 50.23712,-58.48624 213.30242,-236.41177 315.40676,-372.36595 334.59306,-445.51803 4.70784,-17.94965 4.68277,-19.06369 -0.67584,-30.04286 -8.62422,-17.67003 -21.99617,-22.90805 -57.48805,-22.51904 -34.07451,0.37347 -58.77253,5.4236 -109.61538,22.41363 -111.44859,37.2425 -213.72952,99.14694 -313.3199,189.63352 -32.46705,29.49914 -74.87537,76.75748 -98.458948,109.71914 L 66.346154,590.56223 66.399,573.6465 C 66.472483,550.12538 73.62331,502.1687 81.984181,469.12526 114.39372,341.03779 192.99709,230.23909 304.32692,155.71268 502.134,23.296693 759.58702,38.018956 944.87143,192.34175 c 44.49975,37.0637 99.35937,102.09063 99.35937,117.77399 0,8.30326 14.6806,30.88417 21.8733,33.64427 2.3837,0.91469 6.9762,6.84223 10.2055,13.17232 5.6449,11.06492 5.6877,12.08129 1.1068,26.32693 -26.2708,81.69652 -117.19743,211.66128 -225.01255,321.61852 -96.7198,98.64147 -180.3992,162.71853 -239.93406,183.72814 -26.7379,9.43572 -53.9625,9.63334 -67.53003,0.49018 z"
     id="path3" />
  <path
     style="fill:#7137c8;stroke-width:2.88462"
     d="M 137.77522,867.54038 C 117.60123,832.53776 101.15226,795.24557 89.634471,758.39836 78.725167,723.49777 78.408534,718.56551 87.259616,721.40469 c 3.569711,1.14505 15.576924,2.0094 26.682694,1.92072 55.671,-0.44443 137.83534,-35.83782 179.56731,-77.35099 19.54601,-19.44354 26.77198,-33.17247 17.30769,-32.8836 -1.98317,0.0605 -17.88462,10.43484 -35.33654,23.05402 -35.14905,25.41565 -72.52941,45.95671 -96.43702,52.99358 -31.83014,9.36874 -72.46049,3.19812 -80.73409,-12.26123 -8.045774,-15.03366 -0.565342,-48.75193 18.27099,-82.35698 36.25962,-64.68918 131.3713,-161.70754 209.38089,-213.57829 97.73368,-64.98585 175.83199,-101.49262 223.93653,-104.67831 29.53402,-1.95587 41.79026,0.33491 53.21204,9.94569 7.90944,6.65539 8.86624,8.97784 7.59704,18.44051 -5.25468,39.17663 -77.13159,143.04926 -199.38375,288.13865 -20.72066,24.59135 -83.12725,97.96431 -138.68134,163.05104 -55.5541,65.08673 -104.97955,123.17221 -109.83434,129.07884 l -8.8269,10.73933 z"
     id="path4" />
  <path
     style="fill:#7137c8;stroke-width:0.509933"
     d=""
     id="path5" />
  <path
     style="fill:#170b28;fill-opacity:1;stroke-width:2.03973"
     d="M 538.48901,1192.0087 C 393.97902,1175.7176 266.4598,1112.623 167.90029,1008.647 31.529188,864.78151 -23.709484,663.68438 19.57725,468.67503 58.403976,293.75828 180.20186,141.32624 343.69469,63.036741 394.72113,38.602431 455.59977,20.002969 514.23012,10.93524 553.69096,4.8322571 640.31249,4.2805489 678.21059,9.8908187 750.66631,20.616848 810.00082,39.338234 871.98505,71.031051 962.77646,117.45311 1041.7717,188.73873 1098.4165,275.3637 c 14.0473,21.48206 31.5945,51.88227 31.5945,54.73682 0,0.74568 -2.1524,1.35578 -4.7832,1.35578 -5.1692,0 -11.5111,-5.67687 -11.5728,-10.35926 -0.021,-1.59444 -3.2335,-9.20518 -7.139,-16.91274 -3.9055,-7.70757 -7.1009,-15.21345 -7.1009,-16.67973 0,-1.46631 -2.5242,-4.65859 -5.6093,-7.09398 -11.6251,-9.177 -35.9429,-1.46133 -44.9706,14.26844 l -3.1166,5.43046 -17.9669,-23.86736 C 940.81977,160.76084 812.44552,86.62738 665.97221,67.321988 636.98936,63.502006 571.48311,62.982142 541.54861,66.334548 279.05771,95.731263 78.092596,309.04731 63.967512,573.26683 c -1.268391,23.72612 -2.044729,27.65421 -8.027713,40.61831 -14.864422,32.20864 -17.392398,63.74384 -6.436994,80.29822 4.889833,7.38886 18.290963,19.17582 24.019609,21.12643 1.027035,0.34971 5.013094,12.10932 8.857907,26.13247 13.029913,47.52385 31.087569,90.08052 56.306429,132.69791 l 14.50102,24.5053 -7.4066,12.19258 c -4.07363,6.70592 -9.16875,17.20621 -11.32249,23.33399 -12.08004,34.36988 4.66199,43.0028 37.37069,19.26995 l 13.75021,-9.97689 32.14375,32.21979 c 32.78015,32.85771 52.5408,49.38221 85.17674,71.22761 127.7381,85.5033 289.60579,111.6397 438.56577,70.8143 35.30913,-9.6771 60.58005,-19.3608 95.84378,-36.7267 52.70518,-25.955 96.53199,-57.1116 138.44807,-98.42326 45.38431,-44.72987 77.07171,-88.71925 105.37651,-146.28709 25.4203,-51.70106 39.1592,-94.39694 49.2269,-152.97983 6.2517,-36.37777 6.7789,-123.49911 0.9751,-161.13876 -3.6136,-23.43612 -16.3266,-77.01488 -22.1894,-93.51741 -2.4468,-6.88709 -2.3372,-9.62528 0.8941,-22.34945 2.0254,-7.97543 4.2746,-24.86634 4.9981,-37.53534 l 1.3156,-23.03454 h 10.993 10.993 l 6.1243,13.64996 c 18.1057,40.35417 34.666,96.32565 42.4305,143.40934 36.1409,219.15477 -52.5851,440.378 -229.74662,572.83458 -85.95191,64.2628 -184.09387,103.3205 -290.15671,115.474 -29.72939,3.4066 -101.81479,3.9151 -128.50306,0.9064 z"
     id="path9" />
  <path
     style="fill:#170b28;fill-opacity:1;stroke-width:2.03973"
     d="m 1078.2934,356.71116 c -4.0505,-8.49397 -3.829,-9.21241 2.3432,-7.59834 4.6165,1.20723 6.0153,7.39524 2.8123,12.44027 -1.1187,1.76196 -2.7264,0.25202 -5.1555,-4.84193 z"
     id="path10" />
</svg>
